<?xml version="1.0" encoding="UTF-8"?>
<svg xmlns="http://www.w3.org/2000/svg" viewBox="0 0 1200 760" role="img" aria-labelledby="title desc">
  <title id="title">瓷云档案</title>
  <desc id="desc">瓷云档案 的轻量详情图，展示 东方静物 风格线索。</desc>
  <defs>
    <linearGradient id="g" x1="0" y1="0" x2="1" y2="1"><stop offset="0" stop-color="#f5f1e8"/><stop offset=".55" stop-color="#c9e2df"/><stop offset="1" stop-color="#d79c6b"/></linearGradient>
    <pattern id="grid" width="44" height="44" patternUnits="userSpaceOnUse"><path d="M44 0H0V44" fill="none" stroke="#2d4a52" stroke-opacity=".11"/></pattern>
    <filter id="blur"><feGaussianBlur stdDeviation="18"/></filter>
  </defs>
  <rect width="1200" height="760" fill="url(#g)"/>
  <rect width="1200" height="760" fill="url(#grid)"/>
  <circle cx="229" cy="145" r="150" fill="#6f99a0" opacity=".14" filter="url(#blur)"/>
  <circle cx="889" cy="170" r="170" fill="#2d4a52" opacity=".12" filter="url(#blur)"/>
  <path d="M0 253 C170 130, 310 350, 520 260 S820 172, 1200 290 V760 H0Z" fill="#c9e2df" opacity=".7"/>
  <path d="M0 510 C220 444, 360 640, 570 510 S820 390, 1200 560 V760 H0Z" fill="#f5f1e8" opacity=".78"/>
  <g fill="none" stroke="#6f99a0" stroke-width="4" stroke-linecap="round" opacity=".85">
    <path d="M100 510 C260 440, 340 600, 510 480 S760 360, 940 500 S1040 630, 1120 430"/>
    <path d="M170 360 L340 285 L520 370 L730 270 L1010 358"/>
  </g>
  <g fill="#d79c6b" stroke="#2d4a52" stroke-opacity=".7" stroke-width="2">
    <circle cx="180" cy="360" r="10"/><circle cx="340" cy="285" r="8"/><circle cx="520" cy="370" r="12"/><circle cx="730" cy="270" r="9"/><circle cx="1010" cy="358" r="10"/>
  </g>
  <rect x="76" y="72" width="385" height="112" rx="8" fill="#f5f1e8" fill-opacity=".72" stroke="#2d4a52" stroke-opacity=".22"/>
  <text x="104" y="118" fill="#2d4a52" font-family="Arial, sans-serif" font-size="24">瓷云档案</text>
  <text x="104" y="154" fill="#6f99a0" font-family="Arial, sans-serif" font-size="18">东方静物</text>
  <text x="930" y="650" fill="#2d4a52" opacity=".78" font-family="Arial, sans-serif" font-size="16">raster PNG / 产品静物</text>
</svg>
