<?xml version="1.0" encoding="UTF-8"?>
<svg xmlns="http://www.w3.org/2000/svg" viewBox="0 0 1200 760" role="img" aria-labelledby="title desc">
  <title id="title">瓷云档案</title>
  <desc id="desc">乳白和青色云朵漂浮在瓷器釉面般的抽象空间中。</desc>
  <defs>
    <linearGradient id="sky" x1="0" y1="0" x2="1" y2="1">
      <stop offset="0" stop-color="#f5f1e8"/>
      <stop offset="0.56" stop-color="#c9e2df"/>
      <stop offset="1" stop-color="#d79c6b"/>
    </linearGradient>
    <pattern id="grid" width="48" height="48" patternUnits="userSpaceOnUse">
      <path d="M48 0H0V48" fill="none" stroke="#2d4a52" stroke-opacity=".12" stroke-width="1"/>
    </pattern>
    <filter id="soft">
      <feGaussianBlur stdDeviation="16"/>
    </filter>
  </defs>
  <rect width="1200" height="760" fill="url(#sky)"/>
  <rect width="1200" height="760" fill="url(#grid)" opacity=".65"/>
  <circle cx="218" cy="168" r="116" fill="#6f99a0" opacity=".16" filter="url(#soft)"/>
  <circle cx="912" cy="218" r="136" fill="#2d4a52" opacity=".14" filter="url(#soft)"/>
  <path d="M0 182 C 160 102, 250 302, 420 192 S 720 112, 900 202 S 1090 302, 1200 222 V760 H0Z" fill="#c9e2df" opacity=".72"/>
  <path d="M0 357 C 130 277, 280 392, 430 302 S 720 252, 860 332 S 1070 432, 1200 342 V760 H0Z" fill="#f5f1e8" opacity=".78"/>
  <g fill="none" stroke="#6f99a0" stroke-width="3" stroke-linecap="round" opacity=".82">
    <path d="M170 462 C280 372, 370 598, 510 430 S720 403, 840 480 S990 572, 1080 434"/>
    <path d="M120 398 L320 316 L520 312 L710 298 L960 310"/>
    <path d="M230 572 L410 530 L600 628 L790 510 L1010 548"/>
  </g>
  <g fill="#d79c6b" stroke="#2d4a52" stroke-opacity=".8" stroke-width="2">
    <circle cx="170" cy="462" r="10"/>
    <circle cx="320" cy="316" r="8"/>
    <circle cx="510" cy="430" r="12"/>
    <circle cx="710" cy="298" r="9"/>
    <circle cx="840" cy="480" r="11"/>
    <circle cx="1010" cy="548" r="8"/>
  </g>
  <g opacity=".9">
    <rect x="76" y="74" width="320" height="88" rx="6" fill="#f5f1e8" fill-opacity=".72" stroke="#2d4a52" stroke-opacity=".22"/>
    <text x="100" y="116" fill="#2d4a52" font-family="Arial, sans-serif" font-size="22" letter-spacing="2">瓷云档案</text>
    <text x="100" y="146" fill="#6f99a0" font-family="Arial, sans-serif" font-size="18">AI 视觉创作</text>
  </g>
  <g font-family="Arial, sans-serif" font-size="14" fill="#2d4a52" opacity=".78">
    <text x="940" y="650">ARCHIVE 02</text>
    <text x="940" y="678">2026 / AI 视觉创作</text>
  </g>
</svg>
