<?xml version="1.0" encoding="UTF-8"?>
<svg xmlns="http://www.w3.org/2000/svg" viewBox="0 0 1200 760" role="img" aria-labelledby="title desc">
  <title id="title">霓虹植物志</title>
  <desc id="desc">霓虹植物志 的轻量详情图，展示 霓虹图谱 风格线索。</desc>
  <defs>
    <linearGradient id="g" x1="0" y1="0" x2="1" y2="1"><stop offset="0" stop-color="#101014"/><stop offset=".55" stop-color="#10271f"/><stop offset="1" stop-color="#ff5ea8"/></linearGradient>
    <pattern id="grid" width="44" height="44" patternUnits="userSpaceOnUse"><path d="M44 0H0V44" fill="none" stroke="#7df5e8" stroke-opacity=".11"/></pattern>
    <filter id="blur"><feGaussianBlur stdDeviation="18"/></filter>
  </defs>
  <rect width="1200" height="760" fill="url(#g)"/>
  <rect width="1200" height="760" fill="url(#grid)"/>
  <circle cx="321" cy="145" r="150" fill="#c8ff4a" opacity=".14" filter="url(#blur)"/>
  <circle cx="821" cy="170" r="170" fill="#7df5e8" opacity=".12" filter="url(#blur)"/>
  <path d="M0 297 C170 130, 310 350, 520 260 S820 228, 1200 290 V760 H0Z" fill="#10271f" opacity=".7"/>
  <path d="M0 510 C220 476, 360 640, 570 510 S820 390, 1200 560 V760 H0Z" fill="#101014" opacity=".78"/>
  <g fill="none" stroke="#c8ff4a" stroke-width="4" stroke-linecap="round" opacity=".85">
    <path d="M100 510 C260 440, 340 600, 510 480 S760 360, 940 500 S1040 630, 1120 430"/>
    <path d="M170 360 L340 265 L520 370 L730 270 L1010 382"/>
  </g>
  <g fill="#ff5ea8" stroke="#7df5e8" stroke-opacity=".7" stroke-width="2">
    <circle cx="180" cy="360" r="10"/><circle cx="340" cy="265" r="8"/><circle cx="520" cy="370" r="12"/><circle cx="730" cy="270" r="9"/><circle cx="1010" cy="382" r="10"/>
  </g>
  <rect x="76" y="72" width="385" height="112" rx="8" fill="#101014" fill-opacity=".72" stroke="#7df5e8" stroke-opacity=".22"/>
  <text x="104" y="118" fill="#7df5e8" font-family="Arial, sans-serif" font-size="24">霓虹植物志</text>
  <text x="104" y="154" fill="#c8ff4a" font-family="Arial, sans-serif" font-size="18">霓虹图谱</text>
  <text x="930" y="650" fill="#7df5e8" opacity=".78" font-family="Arial, sans-serif" font-size="16">raster PNG / 插画图鉴</text>
</svg>
