<?xml version="1.0" encoding="UTF-8"?>
<svg xmlns="http://www.w3.org/2000/svg" viewBox="0 0 1200 760" role="img" aria-labelledby="title desc">
  <title id="title">卫星花园</title>
  <desc id="desc">轨道卫星上漂浮着温室花园和圆形天线结构。</desc>
  <defs>
    <linearGradient id="sky" x1="0" y1="0" x2="1" y2="1">
      <stop offset="0" stop-color="#0d1420"/>
      <stop offset="0.56" stop-color="#20352c"/>
      <stop offset="1" stop-color="#cdd8e2"/>
    </linearGradient>
    <pattern id="grid" width="48" height="48" patternUnits="userSpaceOnUse">
      <path d="M48 0H0V48" fill="none" stroke="#f2b65c" stroke-opacity=".12" stroke-width="1"/>
    </pattern>
    <filter id="soft">
      <feGaussianBlur stdDeviation="16"/>
    </filter>
  </defs>
  <rect width="1200" height="760" fill="url(#sky)"/>
  <rect width="1200" height="760" fill="url(#grid)" opacity=".65"/>
  <circle cx="313" cy="168" r="131" fill="#94c76e" opacity=".16" filter="url(#soft)"/>
  <circle cx="842" cy="218" r="126" fill="#f2b65c" opacity=".14" filter="url(#soft)"/>
  <path d="M0 242 C 160 162, 250 362, 420 252 S 720 172, 900 262 S 1090 362, 1200 282 V760 H0Z" fill="#20352c" opacity=".72"/>
  <path d="M0 417 C 130 337, 280 452, 430 362 S 720 312, 860 392 S 1070 492, 1200 402 V760 H0Z" fill="#0d1420" opacity=".78"/>
  <g fill="none" stroke="#94c76e" stroke-width="3" stroke-linecap="round" opacity=".82">
    <path d="M170 462 C280 327, 370 598, 510 430 S720 403, 840 430 S990 572, 1080 469"/>
    <path d="M120 398 L320 356 L520 312 L710 298 L960 310"/>
    <path d="M230 572 L410 530 L600 628 L790 510 L1010 518"/>
  </g>
  <g fill="#cdd8e2" stroke="#f2b65c" stroke-opacity=".8" stroke-width="2">
    <circle cx="170" cy="462" r="10"/>
    <circle cx="320" cy="356" r="8"/>
    <circle cx="510" cy="430" r="12"/>
    <circle cx="710" cy="298" r="9"/>
    <circle cx="840" cy="430" r="11"/>
    <circle cx="1010" cy="518" r="8"/>
  </g>
  <g opacity=".9">
    <rect x="76" y="74" width="320" height="88" rx="6" fill="#0d1420" fill-opacity=".72" stroke="#f2b65c" stroke-opacity=".22"/>
    <text x="100" y="116" fill="#f2b65c" font-family="Arial, sans-serif" font-size="22" letter-spacing="2">卫星花园</text>
    <text x="100" y="146" fill="#94c76e" font-family="Arial, sans-serif" font-size="18">作品档案馆</text>
  </g>
  <g font-family="Arial, sans-serif" font-size="14" fill="#f2b65c" opacity=".78">
    <text x="940" y="650">ARCHIVE 07</text>
    <text x="940" y="678">2024 / 作品档案馆</text>
  </g>
</svg>
