<?xml version="1.0" encoding="UTF-8"?>
<svg xmlns="http://www.w3.org/2000/svg" viewBox="0 0 1200 760" role="img" aria-labelledby="title desc">
  <title id="title">玻璃季风</title>
  <desc id="desc">玻璃季风 的轻量详情图，展示 建筑材质 风格线索。</desc>
  <defs>
    <linearGradient id="g" x1="0" y1="0" x2="1" y2="1"><stop offset="0" stop-color="#101719"/><stop offset=".55" stop-color="#20434a"/><stop offset="1" stop-color="#f08b52"/></linearGradient>
    <pattern id="grid" width="44" height="44" patternUnits="userSpaceOnUse"><path d="M44 0H0V44" fill="none" stroke="#dce8e6" stroke-opacity=".11"/></pattern>
    <filter id="blur"><feGaussianBlur stdDeviation="18"/></filter>
  </defs>
  <rect width="1200" height="760" fill="url(#g)"/>
  <rect width="1200" height="760" fill="url(#grid)"/>
  <circle cx="344" cy="145" r="150" fill="#7fd2c6" opacity=".14" filter="url(#blur)"/>
  <circle cx="804" cy="170" r="170" fill="#dce8e6" opacity=".12" filter="url(#blur)"/>
  <path d="M0 308 C170 130, 310 350, 520 260 S820 242, 1200 290 V760 H0Z" fill="#20434a" opacity=".7"/>
  <path d="M0 510 C220 484, 360 640, 570 510 S820 390, 1200 560 V760 H0Z" fill="#101719" opacity=".78"/>
  <g fill="none" stroke="#7fd2c6" stroke-width="4" stroke-linecap="round" opacity=".85">
    <path d="M100 510 C260 440, 340 600, 510 480 S760 360, 940 500 S1040 630, 1120 430"/>
    <path d="M170 360 L340 260 L520 370 L730 270 L1010 388"/>
  </g>
  <g fill="#f08b52" stroke="#dce8e6" stroke-opacity=".7" stroke-width="2">
    <circle cx="180" cy="360" r="10"/><circle cx="340" cy="260" r="8"/><circle cx="520" cy="370" r="12"/><circle cx="730" cy="270" r="9"/><circle cx="1010" cy="388" r="10"/>
  </g>
  <rect x="76" y="72" width="385" height="112" rx="8" fill="#101719" fill-opacity=".72" stroke="#dce8e6" stroke-opacity=".22"/>
  <text x="104" y="118" fill="#dce8e6" font-family="Arial, sans-serif" font-size="24">玻璃季风</text>
  <text x="104" y="154" fill="#7fd2c6" font-family="Arial, sans-serif" font-size="18">建筑材质</text>
  <text x="930" y="650" fill="#dce8e6" opacity=".78" font-family="Arial, sans-serif" font-size="16">raster PNG / 建筑视觉</text>
</svg>
