<?xml version="1.0" encoding="UTF-8"?>
<svg xmlns="http://www.w3.org/2000/svg" viewBox="0 0 1200 760" role="img" aria-labelledby="title desc">
  <title id="title">沙丘信号图书馆</title>
  <desc id="desc">橙色沙丘中的黑色图书馆塔发出绿色无线电信号。</desc>
  <defs>
    <linearGradient id="sky" x1="0" y1="0" x2="1" y2="1">
      <stop offset="0" stop-color="#1c1510"/>
      <stop offset="0.56" stop-color="#9a6032"/>
      <stop offset="1" stop-color="#53e089"/>
    </linearGradient>
    <pattern id="grid" width="48" height="48" patternUnits="userSpaceOnUse">
      <path d="M48 0H0V48" fill="none" stroke="#171b18" stroke-opacity=".12" stroke-width="1"/>
    </pattern>
    <filter id="soft">
      <feGaussianBlur stdDeviation="16"/>
    </filter>
  </defs>
  <rect width="1200" height="760" fill="url(#sky)"/>
  <rect width="1200" height="760" fill="url(#grid)" opacity=".65"/>
  <circle cx="332" cy="168" r="134" fill="#f2c06a" opacity=".16" filter="url(#soft)"/>
  <circle cx="828" cy="218" r="124" fill="#171b18" opacity=".14" filter="url(#soft)"/>
  <path d="M0 254 C 160 174, 250 374, 420 264 S 720 184, 900 274 S 1090 374, 1200 294 V760 H0Z" fill="#9a6032" opacity=".72"/>
  <path d="M0 429 C 130 349, 280 464, 430 374 S 720 324, 860 404 S 1070 504, 1200 414 V760 H0Z" fill="#1c1510" opacity=".78"/>
  <g fill="none" stroke="#f2c06a" stroke-width="3" stroke-linecap="round" opacity=".82">
    <path d="M170 462 C280 318, 370 598, 510 430 S720 403, 840 420 S990 572, 1080 476"/>
    <path d="M120 398 L320 364 L520 312 L710 298 L960 310"/>
    <path d="M230 572 L410 530 L600 628 L790 510 L1010 512"/>
  </g>
  <g fill="#53e089" stroke="#171b18" stroke-opacity=".8" stroke-width="2">
    <circle cx="170" cy="462" r="10"/>
    <circle cx="320" cy="364" r="8"/>
    <circle cx="510" cy="430" r="12"/>
    <circle cx="710" cy="298" r="9"/>
    <circle cx="840" cy="420" r="11"/>
    <circle cx="1010" cy="512" r="8"/>
  </g>
  <g opacity=".9">
    <rect x="76" y="74" width="320" height="88" rx="6" fill="#1c1510" fill-opacity=".72" stroke="#171b18" stroke-opacity=".22"/>
    <text x="100" y="116" fill="#171b18" font-family="Arial, sans-serif" font-size="22" letter-spacing="2">沙丘信号图书馆</text>
    <text x="100" y="146" fill="#f2c06a" font-family="Arial, sans-serif" font-size="18">创作流程展示</text>
  </g>
  <g font-family="Arial, sans-serif" font-size="14" fill="#171b18" opacity=".78">
    <text x="940" y="650">ARCHIVE 08</text>
    <text x="940" y="678">2024 / 创作流程展示</text>
  </g>
</svg>
