<?xml version="1.0" encoding="UTF-8"?>
<svg xmlns="http://www.w3.org/2000/svg" viewBox="0 0 1200 760" role="img" aria-labelledby="title desc">
  <title id="title">合成人像工作室</title>
  <desc id="desc">合成人像工作室 的轻量详情图，展示 编辑部肖像 风格线索。</desc>
  <defs>
    <linearGradient id="g" x1="0" y1="0" x2="1" y2="1"><stop offset="0" stop-color="#151210"/><stop offset=".55" stop-color="#3b2a25"/><stop offset="1" stop-color="#7fd8c2"/></linearGradient>
    <pattern id="grid" width="44" height="44" patternUnits="userSpaceOnUse"><path d="M44 0H0V44" fill="none" stroke="#f25f5c" stroke-opacity=".11"/></pattern>
    <filter id="blur"><feGaussianBlur stdDeviation="18"/></filter>
  </defs>
  <rect width="1200" height="760" fill="url(#g)"/>
  <rect width="1200" height="760" fill="url(#grid)"/>
  <circle cx="367" cy="145" r="150" fill="#f0d5b4" opacity=".14" filter="url(#blur)"/>
  <circle cx="787" cy="170" r="170" fill="#f25f5c" opacity=".12" filter="url(#blur)"/>
  <path d="M0 319 C170 130, 310 350, 520 260 S820 256, 1200 290 V760 H0Z" fill="#3b2a25" opacity=".7"/>
  <path d="M0 510 C220 492, 360 640, 570 510 S820 390, 1200 560 V760 H0Z" fill="#151210" opacity=".78"/>
  <g fill="none" stroke="#f0d5b4" stroke-width="4" stroke-linecap="round" opacity=".85">
    <path d="M100 510 C260 440, 340 600, 510 480 S760 360, 940 500 S1040 630, 1120 430"/>
    <path d="M170 360 L340 255 L520 370 L730 270 L1010 394"/>
  </g>
  <g fill="#7fd8c2" stroke="#f25f5c" stroke-opacity=".7" stroke-width="2">
    <circle cx="180" cy="360" r="10"/><circle cx="340" cy="255" r="8"/><circle cx="520" cy="370" r="12"/><circle cx="730" cy="270" r="9"/><circle cx="1010" cy="394" r="10"/>
  </g>
  <rect x="76" y="72" width="385" height="112" rx="8" fill="#151210" fill-opacity=".72" stroke="#f25f5c" stroke-opacity=".22"/>
  <text x="104" y="118" fill="#f25f5c" font-family="Arial, sans-serif" font-size="24">合成人像工作室</text>
  <text x="104" y="154" fill="#f0d5b4" font-family="Arial, sans-serif" font-size="18">编辑部肖像</text>
  <text x="930" y="650" fill="#f25f5c" opacity=".78" font-family="Arial, sans-serif" font-size="16">raster PNG / AI 人像</text>
</svg>
